PathFileType	4	(X/Y/Z)	Kane _Static
DataRate	CameraRate	NumFrames	NumMarkers	Units	OrigDataRate	OrigDataStartFrame	OrigNumFrames
250	250	5	66	mm	250	381	200
Frame#	Time	LASI			RASI			LPSI			RPSI			C7			T10			CLAV			STRN			RTH1			RTH2			RTH3			RTB1			RTB2			RTB3			RCAL			RMT1			RMT2			LTH1			LTH2			LTH3			LTB1			LTB2			LTB3			LCAL			LMT1			LMT2			RLFC			RMFC			LLFC			LMFC			RMMAL			RLMAL			LMMAL			LLMAL			G_LCAL			G_LMT1			G_LMT2			G_RCAL			G_RMT1			G_RMT2			LAJC			LKJC			OPelvis			RAJC			RKJC			Reg_LHJC			Reg_RHJC			SACR			fun_LAJC			fun_LHJC			fun_LKJC			fun_LLAJC			fun_LLKJC			fun_LMAJC			fun_LMKJC			fun_RAJC			fun_RHJC			fun_RKJC			fun_RLAJC			fun_RLKJC			fun_RMAJC			fun_RMKJC			RHJC			LHJC			G_RAJC			G_LAJC		
		X1	Y1	Z1	X2	Y2	Z2	X3	Y3	Z3	X4	Y4	Z4	X5	Y5	Z5	X6	Y6	Z6	X7	Y7	Z7	X8	Y8	Z8	X9	Y9	Z9	X10	Y10	Z10	X11	Y11	Z11	X12	Y12	Z12	X13	Y13	Z13	X14	Y14	Z14	X15	Y15	Z15	X16	Y16	Z16	X17	Y17	Z17	X18	Y18	Z18	X19	Y19	Z19	X20	Y20	Z20	X21	Y21	Z21	X22	Y22	Z22	X23	Y23	Z23	X24	Y24	Z24	X25	Y25	Z25	X26	Y26	Z26	X27	Y27	Z27	X28	Y28	Z28	X29	Y29	Z29	X30	Y30	Z30	X31	Y31	Z31	X32	Y32	Z32	X33	Y33	Z33	X34	Y34	Z34	X35	Y35	Z35	X36	Y36	Z36	X37	Y37	Z37	X38	Y38	Z38	X39	Y39	Z39	X40	Y40	Z40	X41	Y41	Z41	X42	Y42	Z42	X43	Y43	Z43	X44	Y44	Z44	X45	Y45	Z45	X46	Y46	Z46	X47	Y47	Z47	X48	Y48	Z48	X49	Y49	Z49	X50	Y50	Z50	X51	Y51	Z51	X52	Y52	Z52	X53	Y53	Z53	X54	Y54	Z54	X55	Y55	Z55	X56	Y56	Z56	X57	Y57	Z57	X58	Y58	Z58	X59	Y59	Z59	X60	Y60	Z60	X61	Y61	Z61	X62	Y62	Z62	X63	Y63	Z63	X64	Y64	Z64	X65	Y65	Z65	X66	Y66	Z66	
370	1.48	543.165346	1040.393014	-666.171773	541.785736	1039.773355	-460.402035	371.589544	1110.858231	-619.106723	369.701853	1105.352806	-507.572378	382.985759	1542.357013	-566.886876	360.700630	1301.526798	-564.332617	517.075902	1492.530812	-562.941351	583.887776	1320.859963	-560.877540	463.991837	899.164088	-390.330892	559.703334	795.837056	-459.367458	471.201649	695.438379	-388.320941	465.489608	412.210756	-482.209552	410.013368	331.181932	-378.276510	433.361504	221.098084	-462.036193	312.090152	 56.454375	-437.904732	553.409206	 60.110176	-431.311497	527.601685	 56.474086	-352.430190	430.364296	862.272881	-747.793232	535.413235	751.676410	-713.369286	416.699258	663.749340	-738.748109	457.952117	415.938299	-670.214527	385.167273	337.144818	-764.551004	422.365209	221.293499	-682.922491	301.802234	 59.514480	-703.105375	547.568181	 54.789406	-701.367978	515.648916	 52.805014	-794.790893	466.001067	502.762813	-414.066602	478.540603	489.565064	-516.701415	434.924718	510.956016	-728.953470	451.027582	508.744080	-627.364274	413.599775	106.668120	-472.015437	392.823713	108.132973	-384.831957	423.858555	118.019916	-676.696610	377.024089	108.787077	-758.849925	301.802234	  0.000000	-703.105375	547.568181	  0.000000	-701.367978	515.648916	  0.000000	-794.790893	312.090152	  0.000000	-437.904732	553.409206	  0.000000	-431.311497	527.601685	  0.000000	-352.430190	400.441322	113.403497	-717.773267	442.976150	509.850048	-678.158872	542.475540	1040.083166	-563.286896	403.211743	107.400547	-428.423699	472.270835	496.163938	-465.384009	472.694170	997.307225	-633.587602	472.386233	996.637126	-493.707204	370.645698	1108.105520	-563.339547	384.292390	118.337923	-709.121564	462.753569	953.029431	-662.834914	442.976148	509.850045	-678.158873	371.890813	114.487871	-756.564242	434.924718	510.956016	-728.953470	396.693964	122.187975	-661.678882	451.027582	508.744080	-627.364274	396.213758	103.812313	-430.031235	462.764065	950.068403	-474.666140	472.270836	496.163938	-465.384008	384.851694	100.531750	-386.603998	466.001067	502.762813	-414.066602	407.575819	107.092875	-473.458473	478.540603	489.565064	-516.701415	462.764065	950.068403	-474.666140	462.753569	953.029431	-662.834914	403.211743	  0.000000	-428.423699	400.441322	  0.000000	-717.773267	
371	1.484	543.259393	1040.389989	-666.179179	541.857481	1039.765474	-460.398954	371.669206	1110.858556	-619.112905	369.784175	1105.351083	-507.584742	383.020658	1542.367528	-566.905451	360.734025	1301.511401	-564.346876	517.103040	1492.516729	-562.936360	583.911036	1320.847473	-560.858488	464.048903	899.160133	-390.331129	559.756076	795.828238	-459.365552	471.242845	695.435660	-388.318174	465.517676	412.207882	-482.211183	410.035020	331.184581	-378.279041	433.372176	221.095122	-462.036143	312.092636	 56.457821	-437.906220	553.411494	 60.108882	-431.311048	527.602251	 56.474112	-352.430030	430.436251	862.272339	-747.800168	535.466258	751.664493	-713.357984	416.753264	663.748434	-738.753855	457.984110	415.933890	-670.214084	385.186913	337.145368	-764.553531	422.374833	221.292412	-682.922514	301.803499	 59.515794	-703.105746	547.569744	 54.789093	-701.368760	515.649242	 52.804697	-794.790390	466.028691	502.760126	-414.061803	478.569712	489.559973	-516.696124	434.963213	510.953752	-728.953980	451.049223	508.742193	-627.362097	413.612862	106.677394	-472.022977	392.827882	108.136467	-384.833827	423.860797	118.021020	-676.696286	377.027277	108.788795	-758.849532	301.803499	  0.000000	-703.105746	547.569744	  0.000000	-701.368760	515.649242	  0.000000	-794.790390	312.092636	  0.000000	-437.906220	553.411494	  0.000000	-431.311048	527.602251	  0.000000	-352.430030	400.444037	113.404907	-717.772909	443.006218	509.847973	-678.158039	542.558436	1040.077714	-563.289058	403.220371	107.406931	-428.428404	472.299201	496.160050	-465.378963	472.779224	997.306639	-633.595706	472.463086	996.630500	-493.715345	370.726690	1108.104822	-563.348820	384.290341	118.340890	-709.118806	462.841873	953.029344	-662.845007	443.006216	509.847970	-678.158040	371.888097	114.492455	-756.560820	434.963213	510.953752	-728.953980	396.692582	122.189325	-661.676786	451.049223	508.742193	-627.362097	396.216507	103.815410	-430.038132	462.836672	950.062005	-474.676311	472.299203	496.160050	-465.378963	384.853361	100.535911	-386.607681	466.028691	502.760126	-414.061803	407.579651	107.094909	-473.468584	478.569712	489.559973	-516.696124	462.836672	950.062005	-474.676311	462.841873	953.029344	-662.845007	403.220371	  0.000000	-428.428404	400.444037	  0.000000	-717.772909	
372	1.488	543.352400	1040.386803	-666.186209	541.930241	1039.757683	-460.396584	371.749255	1110.858413	-619.118810	369.866889	1105.348696	-507.597535	383.054724	1542.378001	-566.924515	360.766673	1301.495837	-564.361101	517.128886	1492.502535	-562.931900	583.933565	1320.835052	-560.839918	464.106712	899.156005	-390.331759	559.809745	795.819435	-459.364012	471.285008	695.432748	-388.315745	465.546814	412.204739	-482.213086	410.057608	331.187168	-378.281792	433.383180	221.091861	-462.036194	312.095257	 56.461175	-437.907803	553.413869	 60.107508	-431.310633	527.602817	 56.474165	-352.429915	430.507988	862.271849	-747.807196	535.519575	751.652724	-713.346902	416.807475	663.747559	-738.759739	458.016321	415.929500	-670.213784	385.206812	337.145918	-764.556078	422.384189	221.291334	-682.921964	301.804768	 59.517068	-703.106080	547.571338	 54.788710	-701.369587	515.649546	 52.804334	-794.789884	466.057519	502.757289	-414.057309	478.600080	489.554720	-516.691130	435.002321	510.951512	-728.954685	451.071634	508.740331	-627.360142	413.626099	106.686758	-472.030726	392.832188	108.140077	-384.835793	423.863085	118.022119	-676.695866	377.030476	108.790529	-758.849181	301.804768	  0.000000	-703.106080	547.571338	  0.000000	-701.369587	515.649546	  0.000000	-794.789884	312.095257	  0.000000	-437.907803	553.413869	  0.000000	-431.310633	527.602817	  0.000000	-352.429915	400.446780	113.406324	-717.772523	443.036977	509.845922	-678.157414	542.641319	1040.072226	-563.291388	403.229143	107.413418	-428.433262	472.328799	496.156005	-465.374220	472.864368	997.305518	-633.603639	472.540341	996.623935	-493.723315	370.808071	1108.103558	-563.358170	384.287693	118.343911	-709.115675	462.930018	953.028685	-662.854775	443.036975	509.845919	-678.157415	371.884868	114.496921	-756.557126	435.002321	510.951512	-728.954685	396.690515	122.190901	-661.674218	451.071634	508.740331	-627.360142	396.219253	103.818472	-430.045212	462.910052	950.055636	-474.686152	472.328801	496.156005	-465.374220	384.855064	100.540101	-386.611480	466.057519	502.757289	-414.057309	407.583440	107.096844	-473.478945	478.600080	489.554720	-516.691130	462.910052	950.055636	-474.686152	462.930018	953.028685	-662.854775	403.229143	  0.000000	-428.433262	400.446780	  0.000000	-717.772523	
373	1.492	543.444353	1040.383406	-666.192786	542.003987	1039.749967	-460.394899	371.829723	1110.857826	-619.124449	369.949944	1105.345709	-507.610731	383.087944	1542.388437	-566.944037	360.798611	1301.480108	-564.375314	517.153447	1492.488256	-562.927961	583.955378	1320.822741	-560.821880	464.165201	899.151723	-390.332744	559.864262	795.810644	-459.362812	471.328062	695.429650	-388.313621	465.576940	412.201351	-482.215252	410.081081	331.189693	-378.284745	433.394517	221.088353	-462.036357	312.098012	 56.464440	-437.909475	553.416328	 60.106051	-431.310254	527.603385	 56.474238	-352.429839	430.579471	862.271397	-747.814276	535.573177	751.641100	-713.336041	416.861864	663.746698	-738.765727	458.048731	415.925129	-670.213610	385.226977	337.146470	-764.558632	422.393269	221.290259	-682.920839	301.806039	 59.518308	-703.106377	547.572960	 54.788254	-701.370454	515.649826	 52.803925	-794.789376	466.087455	502.754312	-414.053090	478.631598	489.549315	-516.686405	435.042024	510.949284	-728.955563	451.094833	508.738478	-627.358392	413.639419	106.696157	-472.038634	392.836621	108.143795	-384.837851	423.865428	118.023202	-676.695350	377.033683	108.792279	-758.848881	301.806039	  0.000000	-703.106377	547.572960	  0.000000	-701.370454	515.649826	  0.000000	-794.789376	312.098012	  0.000000	-437.909475	553.416328	  0.000000	-431.310254	527.603385	  0.000000	-352.429839	400.449556	113.407741	-717.772116	443.068429	509.843881	-678.156977	542.724169	1040.066670	-563.293834	403.238020	107.419977	-428.438244	472.359527	496.151813	-465.369748	472.949570	997.303844	-633.611354	472.617940	996.617444	-493.731063	370.889832	1108.101771	-563.367587	384.284449	118.346983	-709.112173	463.017941	953.027440	-662.864166	443.068426	509.843878	-678.156979	371.881134	114.501268	-756.553176	435.042024	510.949284	-728.955563	396.687759	122.192697	-661.671165	451.094833	508.738478	-627.358392	396.222021	103.821503	-430.052426	462.984142	950.049310	-474.695607	472.359528	496.151814	-465.369748	384.856837	100.544317	-386.615370	466.087455	502.754312	-414.053090	407.587202	107.098689	-473.489484	478.631598	489.549315	-516.686405	462.984142	950.049310	-474.695607	463.017941	953.027440	-662.864166	403.238020	  0.000000	-428.438244	400.449556	  0.000000	-717.772116	
374	1.496	543.535248	1040.379750	-666.198841	542.078687	1039.742311	-460.393873	371.910640	1110.856815	-619.129834	370.033286	1105.342191	-507.624298	383.120303	1542.398841	-566.963990	360.829881	1301.464215	-564.389539	517.176733	1492.473913	-562.924534	583.976487	1320.810582	-560.804418	464.224310	899.147305	-390.334046	559.919547	795.801866	-459.361924	471.371930	695.426372	-388.311769	465.607969	412.197742	-482.217674	410.105384	331.192157	-378.287882	433.406187	221.084650	-462.036645	312.100899	 56.467620	-437.911229	553.418862	 60.104511	-431.309911	527.603954	 56.474325	-352.429797	430.650672	862.270969	-747.821371	535.627053	751.629614	-713.325399	416.916400	663.745834	-738.771783	458.081321	415.920774	-670.213544	385.247414	337.147024	-764.561182	422.402065	221.289184	-682.919144	301.807310	 59.519523	-703.106634	547.574606	 54.787721	-701.371353	515.650081	 52.803470	-794.788867	466.118403	502.751204	-414.049111	478.664156	489.543770	-516.681916	435.082297	510.947056	-728.956589	451.118828	508.736618	-627.356828	413.652755	106.705536	-472.046650	392.841169	108.147615	-384.839994	423.867834	118.024258	-676.694736	377.036894	108.794047	-758.848645	301.807310	  0.000000	-703.106634	547.574606	  0.000000	-701.371353	515.650081	  0.000000	-794.788867	312.100899	  0.000000	-437.911229	553.418862	  0.000000	-431.309911	527.603954	  0.000000	-352.429797	400.452364	113.409153	-717.771691	443.100563	509.841837	-678.156708	542.806966	1040.061015	-563.296348	403.246962	107.426576	-428.443324	472.391280	496.147487	-465.365514	473.034798	997.301606	-633.618805	472.695829	996.611036	-493.738545	370.971962	1108.099508	-563.377063	384.280617	118.350103	-709.108309	463.105584	953.025602	-662.873133	443.100560	509.841834	-678.156710	371.876909	114.505495	-756.548989	435.082297	510.947056	-728.956589	396.684321	122.194710	-661.667623	451.118828	508.736618	-627.356828	396.224834	103.824507	-430.059727	463.058876	950.043041	-474.704630	472.391281	496.147487	-465.365514	384.858714	100.548558	-386.619325	466.118403	502.751204	-414.049111	407.590952	107.100456	-473.500130	478.664156	489.543770	-516.681916	463.058876	950.043041	-474.704630	463.105584	953.025602	-662.873133	403.246962	  0.000000	-428.443324	400.452364	  0.000000	-717.771691	
